<svg xmlns="http://www.w3.org/2000/svg" xmlns:xlink="http://www.w3.org/1999/xlink" width="640" height="420" viewBox="0 0 640 420"><defs><clipPath id="b"><rect width="640" height="420"/></clipPath></defs><g id="a" clip-path="url(#b)"><rect width="640" height="420" fill="#fff"/><g fill="#fff" stroke="rgba(235,98,1,0.5)" stroke-width="4"><rect width="640" height="420" stroke="none"/><rect x="2" y="2" width="636" height="416" fill="none"/></g><text transform="translate(122 76)" fill="#333" font-size="36" font-family="SourceHanSans-Bold, Source Han Sans" font-weight="700"><tspan x="0" y="0">入居手続きに必要なもの</tspan></text><text transform="translate(224 271)" fill="#333" font-size="32" font-family="SourceHanSans-Bold, Source Han Sans" font-weight="700"><tspan x="0" y="0">必要ないもの</tspan></text><g transform="translate(11 -1)"><g transform="translate(10)"><rect width="170" height="50" rx="5" transform="translate(103 287)" fill="#999"/><text transform="translate(120 324)" fill="#fff" font-size="28" font-family="SourceHanSans-Bold, Source Han Sans" font-weight="700" letter-spacing="-0.03em"><tspan x="0" y="0">連帯保証人</tspan></text></g><g transform="translate(39 -1)"><rect width="93" height="50" rx="5" transform="translate(252 288)" fill="#999"/><text transform="translate(271 325)" fill="#fff" font-size="28" font-family="SourceHanSans-Bold, Source Han Sans" font-weight="700" letter-spacing="0.01em"><tspan x="0" y="0">ビザ</tspan></text></g><g transform="translate(62 -55)"><rect width="114" height="50" rx="5" transform="translate(330 342)" fill="#999"/><text transform="translate(345 379)" fill="#fff" font-size="28" font-family="SourceHanSans-Bold, Source Han Sans" font-weight="700" letter-spacing="0.01em"><tspan x="0" y="0">ハンコ</tspan></text></g></g><g transform="translate(9 -4)"><g transform="translate(316 1)"><rect width="266" height="50" rx="5" transform="translate(24 349)" fill="#999"/><text transform="translate(38 386)" fill="#fff" font-size="28" font-family="SourceHanSans-Bold, Source Han Sans" font-weight="700" letter-spacing="-0.05em"><tspan x="0" y="0">電気・ガス</tspan><tspan y="0" font-size="22">の申し込み</tspan></text></g><g transform="translate(-293 1)"><rect width="316" height="50" rx="5" transform="translate(309 349)" fill="#999"/><text transform="translate(319 386)" fill="#fff" font-size="28" font-family="SourceHanSans-Bold, Source Han Sans" font-weight="700" letter-spacing="-0.05em"><tspan x="0" y="0">インターネット</tspan><tspan y="0" font-size="22">の申し込み</tspan></text></g></g><g transform="translate(-6 -9)"><text transform="translate(109 150)" fill="#eb6201" font-size="32" font-family="SourceHanSans-Bold, Source Han Sans" font-weight="700"><tspan x="-48" y="0">保証金</tspan><tspan x="-41.424" y="40">3万円</tspan></text><g transform="translate(34 106)" fill="none" stroke="#999" stroke-width="3"><rect width="150" height="100" stroke="none"/><rect x="1.5" y="1.5" width="147" height="97" fill="none"/></g><text transform="translate(543 150)" fill="#eb6201" font-size="32" font-family="SourceHanSans-Bold, Source Han Sans" font-weight="700"><tspan x="-32" y="0">家賃</tspan><tspan x="-57.424" y="40">1か月分</tspan></text><g transform="translate(468 106)" fill="none" stroke="#999" stroke-width="3"><rect width="150" height="100" stroke="none"/><rect x="1.5" y="1.5" width="147" height="97" fill="none"/></g><g transform="translate(7)"><text transform="translate(317 153)" fill="#eb6201" font-size="32" font-family="SourceHanSans-Bold, Source Han Sans" font-weight="700" letter-spacing="-0.03em"><tspan x="-93.6" y="0">本人確認書類</tspan><tspan font-size="26"><tspan x="-97.708" y="36">(パスポートなど)</tspan></tspan></text><g transform="translate(199 106)" fill="none" stroke="#999" stroke-width="3"><rect width="240" height="100" stroke="none"/><rect x="1.5" y="1.5" width="237" height="97" fill="none"/></g></g></g></g></svg>