<svg xmlns="http://www.w3.org/2000/svg" xmlns:xlink="http://www.w3.org/1999/xlink" width="640" height="420" viewBox="0 0 640 420"><defs><clipPath id="b"><rect width="640" height="420"/></clipPath></defs><g id="a" clip-path="url(#b)"><rect width="640" height="420" fill="#fff"/><g fill="#fff" stroke="rgba(235,98,1,0.5)" stroke-width="4"><rect width="640" height="420" stroke="none"/><rect x="2" y="2" width="636" height="416" fill="none"/></g><text transform="translate(175 76)" fill="#333" font-size="36" font-family="SourceHanSans-Bold, Source Han Sans" font-weight="700"><tspan x="0" y="0">初期費用が安い！</tspan></text><text transform="translate(75 156)" fill="#333" font-size="36" font-family="SourceHanSans-Bold, Source Han Sans" font-weight="700"><tspan x="0" y="0">保証金</tspan><tspan y="0" fill="#eb6201" font-size="60">3</tspan><tspan y="0" fill="#eb6201">万円</tspan><tspan y="0">＋家賃1か月のみ</tspan></text><text transform="translate(121 225)" fill="#eb6201" font-size="36" font-family="SourceHanSans-Bold, Source Han Sans" font-weight="700"><tspan x="0" y="0">毎月のコストは家賃だけ</tspan></text><text transform="translate(175 310)" fill="#333" font-size="32" font-family="SourceHanSans-Bold, Source Han Sans" font-weight="700"><tspan x="0" y="0">家賃に含まれるもの</tspan></text><g transform="translate(-24 -2)"><rect width="114" height="50" rx="5" transform="translate(50 339)" fill="#999"/><text transform="translate(65 376)" fill="#fff" font-size="28" font-family="SourceHanSans-Bold, Source Han Sans" font-weight="700" letter-spacing="0.01em"><tspan x="0" y="0">光熱費</tspan></text></g><g transform="translate(-33 -2)"><rect width="114" height="50" rx="5" transform="translate(186 339)" fill="#999"/><text transform="translate(201 376)" fill="#fff" font-size="28" font-family="SourceHanSans-Bold, Source Han Sans" font-weight="700" letter-spacing="0.01em"><tspan x="0" y="0">共益費</tspan></text></g><g transform="translate(-50 -5)"><rect width="114" height="50" rx="5" transform="translate(330 342)" fill="#999"/><text transform="translate(345 379)" fill="#fff" font-size="28" font-family="SourceHanSans-Bold, Source Han Sans" font-weight="700" letter-spacing="0.01em"><tspan x="0" y="0">水道代</tspan></text></g><rect width="208" height="50" rx="5" transform="translate(407 337)" fill="#999"/><text transform="translate(419 374)" fill="#fff" font-size="28" font-family="SourceHanSans-Bold, Source Han Sans" font-weight="700" letter-spacing="-0.07em"><tspan x="0" y="0">インターネット</tspan></text></g></svg>